<mxfile host="app.diagrams.net" modified="2021-03-11T13:35:17.373Z" agent="5.0 (Macintosh; Intel Mac OS X 10_15_7) AppleWebKit/537.36 (KHTML, like Gecko) Chrome/89.0.4389.82 Safari/537.36" etag="eBiXDSpN3WTAOyrNQyFp" version="14.4.4" type="github">
  <diagram id="Jv3Z4CTPH-zcowsvNSvo" name="Page-1">
    <mxGraphModel dx="1426" dy="867" grid="1" gridSize="10" guides="1" tooltips="1" connect="1" arrows="1" fold="1" page="1" pageScale="1" pageWidth="827" pageHeight="1169" math="0" shadow="0">
      <root>
        <mxCell id="0" />
        <mxCell id="1" parent="0" />
        <mxCell id="fnzVoTdMtzY9fUc4D672-8" style="edgeStyle=orthogonalEdgeStyle;rounded=0;orthogonalLoop=1;jettySize=auto;html=1;" edge="1" parent="1" source="fnzVoTdMtzY9fUc4D672-1" target="fnzVoTdMtzY9fUc4D672-2">
          <mxGeometry relative="1" as="geometry" />
        </mxCell>
        <mxCell id="fnzVoTdMtzY9fUc4D672-9" style="edgeStyle=orthogonalEdgeStyle;rounded=0;orthogonalLoop=1;jettySize=auto;html=1;" edge="1" parent="1" source="fnzVoTdMtzY9fUc4D672-1" target="fnzVoTdMtzY9fUc4D672-3">
          <mxGeometry relative="1" as="geometry" />
        </mxCell>
        <mxCell id="fnzVoTdMtzY9fUc4D672-1" value="Clientes" style="verticalLabelPosition=bottom;html=1;fillColor=#282828;strokeColor=none;verticalAlign=top;pointerEvents=1;align=center;shape=mxgraph.cisco_safe.people_places_things_icons.icon1;" vertex="1" parent="1">
          <mxGeometry x="350" y="40" width="70" height="80" as="geometry" />
        </mxCell>
        <mxCell id="fnzVoTdMtzY9fUc4D672-10" style="edgeStyle=orthogonalEdgeStyle;rounded=0;orthogonalLoop=1;jettySize=auto;html=1;" edge="1" parent="1" source="fnzVoTdMtzY9fUc4D672-2" target="fnzVoTdMtzY9fUc4D672-4">
          <mxGeometry relative="1" as="geometry" />
        </mxCell>
        <mxCell id="fnzVoTdMtzY9fUc4D672-2" value="Delivery front-end" style="verticalLabelPosition=bottom;html=1;verticalAlign=top;align=center;strokeColor=none;fillColor=#00BEF2;shape=mxgraph.azure.mobile_services;pointerEvents=1;" vertex="1" parent="1">
          <mxGeometry x="290" y="200" width="50" height="70" as="geometry" />
        </mxCell>
        <mxCell id="fnzVoTdMtzY9fUc4D672-11" style="edgeStyle=orthogonalEdgeStyle;rounded=0;orthogonalLoop=1;jettySize=auto;html=1;" edge="1" parent="1" source="fnzVoTdMtzY9fUc4D672-3" target="fnzVoTdMtzY9fUc4D672-5">
          <mxGeometry relative="1" as="geometry" />
        </mxCell>
        <mxCell id="fnzVoTdMtzY9fUc4D672-3" value="Vendas front-end" style="aspect=fixed;html=1;points=[];align=center;image;fontSize=12;image=img/lib/mscae/Managed_Desktop.svg;" vertex="1" parent="1">
          <mxGeometry x="430" y="204.9" width="83.61" height="60.2" as="geometry" />
        </mxCell>
        <mxCell id="fnzVoTdMtzY9fUc4D672-12" style="edgeStyle=orthogonalEdgeStyle;rounded=0;orthogonalLoop=1;jettySize=auto;html=1;startArrow=classic;startFill=1;" edge="1" parent="1" source="fnzVoTdMtzY9fUc4D672-4" target="fnzVoTdMtzY9fUc4D672-5">
          <mxGeometry relative="1" as="geometry" />
        </mxCell>
        <mxCell id="fnzVoTdMtzY9fUc4D672-13" style="edgeStyle=orthogonalEdgeStyle;rounded=0;orthogonalLoop=1;jettySize=auto;html=1;startArrow=classic;startFill=1;" edge="1" parent="1" source="fnzVoTdMtzY9fUc4D672-4" target="fnzVoTdMtzY9fUc4D672-6">
          <mxGeometry relative="1" as="geometry" />
        </mxCell>
        <mxCell id="fnzVoTdMtzY9fUc4D672-4" value="Delivery service" style="aspect=fixed;html=1;points=[];align=center;image;fontSize=12;image=img/lib/azure2/app_services/API_Management_Services.svg;" vertex="1" parent="1">
          <mxGeometry x="200" y="370" width="86.67" height="80" as="geometry" />
        </mxCell>
        <mxCell id="fnzVoTdMtzY9fUc4D672-14" style="edgeStyle=orthogonalEdgeStyle;rounded=0;orthogonalLoop=1;jettySize=auto;html=1;startArrow=classic;startFill=1;" edge="1" parent="1" source="fnzVoTdMtzY9fUc4D672-5" target="fnzVoTdMtzY9fUc4D672-7">
          <mxGeometry relative="1" as="geometry" />
        </mxCell>
        <mxCell id="fnzVoTdMtzY9fUc4D672-5" value="Vendas service" style="aspect=fixed;html=1;points=[];align=center;image;fontSize=12;image=img/lib/azure2/app_services/API_Management_Services.svg;" vertex="1" parent="1">
          <mxGeometry x="520" y="370" width="86.67" height="80" as="geometry" />
        </mxCell>
        <mxCell id="fnzVoTdMtzY9fUc4D672-6" value="Delivery business service" style="aspect=fixed;html=1;points=[];align=center;image;fontSize=12;image=img/lib/mscae/API_Management.svg;" vertex="1" parent="1">
          <mxGeometry x="100.00000000000001" y="547" width="90.48" height="76" as="geometry" />
        </mxCell>
        <mxCell id="fnzVoTdMtzY9fUc4D672-7" value="Vendas business service" style="aspect=fixed;html=1;points=[];align=center;image;fontSize=12;image=img/lib/mscae/API_Management.svg;" vertex="1" parent="1">
          <mxGeometry x="610" y="547" width="90.48" height="76" as="geometry" />
        </mxCell>
      </root>
    </mxGraphModel>
  </diagram>
</mxfile>
